<svg width="18" height="18" viewBox="0 0 18 18" fill="none" xmlns="http://www.w3.org/2000/svg">
<path d="M15.87 14.51L15.83 13.5C15.47 14.11 15.05 14.67 14.54 15.16C14.04 15.65 13.48 16.07 12.87 16.42C12.26 16.77 11.61 17.03 10.92 17.22C10.23 17.41 9.51 17.5 8.76 17.5C7.96 17.5 7.19 17.4 6.45 17.19C5.71 16.98 5.01 16.68 4.36 16.3C3.71 15.91 3.12 15.45 2.58 14.92C2.04 14.39 1.58 13.8 1.2 13.15C0.819997 12.5 0.519998 11.81 0.309998 11.06C0.0999976 10.31 0 9.55 0 8.75C0 7.95 0.0999976 7.18 0.309998 6.44C0.519998 5.7 0.819997 5 1.2 4.35C1.59 3.7 2.05 3.11 2.58 2.58C3.11 2.05 3.7 1.59 4.35 1.2C5 0.81 5.69 0.52 6.44 0.31C7.18 0.1 7.95 0 8.75 0C9.48 0 10.19 0.09 10.89 0.28C11.59 0.47 12.24 0.74 12.86 1.09C13.47 1.44 14.04 1.87 14.55 2.36C15.06 2.86 15.5 3.41 15.86 4.03V0.75C15.86 0.47 16 0.32 16.27 0.32H16.96C17.26 0.32 17.41 0.46 17.41 0.75V16.77C17.41 16.92 17.36 17.03 17.26 17.1C17.16 17.17 17.05 17.2 16.91 17.2H16.36C16.01 17.2 15.84 17.04 15.84 16.72V14.53L15.87 14.51ZM15.95 8.74C15.95 7.77 15.75 6.85 15.36 5.98C14.97 5.11 14.44 4.34 13.79 3.68C13.13 3.02 12.37 2.49 11.5 2.1C10.63 1.71 9.71 1.51 8.75 1.5H8.71C7.76 1.5 6.85 1.7 6 2.09C5.14 2.48 4.39 3.01 3.74 3.67C3.09 4.33 2.58 5.1 2.19 5.97C1.81 6.84 1.62 7.76 1.62 8.73C1.62 9.7 1.8 10.62 2.17 11.51C2.54 12.39 3.04 13.17 3.68 13.84C4.32 14.51 5.07 15.04 5.93 15.44C6.79 15.83 7.71 16.03 8.68 16.03C9.65 16.03 10.6 15.84 11.49 15.45C12.38 15.06 13.15 14.54 13.8 13.88C14.45 13.22 14.98 12.45 15.37 11.57C15.76 10.69 15.95 9.75 15.95 8.76V8.74Z" fill="#1D1D1B"/>
<path d="M8.72 12.66C10.7745 12.66 12.44 10.9945 12.44 8.93997C12.44 6.88547 10.7745 5.21997 8.72 5.21997C6.6655 5.21997 5 6.88547 5 8.93997C5 10.9945 6.6655 12.66 8.72 12.66Z" fill="#A48A7B"/>
</svg>
