<svg width="43" height="43" viewBox="0 0 43 43" fill="none" xmlns="http://www.w3.org/2000/svg">
<path d="M17.81 19.5801V18.1801H1.97997V19.5801C1.97997 20.6801 1.91997 21.0601 6.00997 22.3501C7.94997 22.9601 7.94997 24.0001 7.89997 24.6901C7.42997 31.1301 6.33997 35.4801 6.33997 38.7801C6.33997 40.7401 7.92997 42.3301 9.88997 42.3301C11.85 42.3301 13.44 40.7401 13.44 38.7801C13.44 35.4801 12.35 31.1301 11.88 24.6901C11.83 24.0101 11.83 22.9601 13.77 22.3501C17.87 21.0601 17.8 20.6801 17.8 19.5801H17.81Z" stroke="white" stroke-width="1.06" stroke-linecap="round" stroke-linejoin="round"/>
<path d="M17.82 13.36H1.98999V18.18H17.82V13.36Z" stroke="white" stroke-width="1.06" stroke-linecap="round" stroke-linejoin="round"/>
<path d="M17.81 13.36L18.9 5.46002H0.909973L1.98997 13.36" stroke="white" stroke-width="1.06" stroke-linecap="round" stroke-linejoin="round"/>
<path d="M4.88995 5.46002V9.60002" stroke="white" stroke-width="1.06" stroke-linecap="round" stroke-linejoin="round"/>
<path d="M8.22998 5.46002V9.60002" stroke="white" stroke-width="1.06" stroke-linecap="round" stroke-linejoin="round"/>
<path d="M11.5699 5.46002V9.60002" stroke="white" stroke-width="1.06" stroke-linecap="round" stroke-linejoin="round"/>
<path d="M14.9199 5.46002V9.60002" stroke="white" stroke-width="1.06" stroke-linecap="round" stroke-linejoin="round"/>
<path d="M23.7099 18.18H29.8599C31.7899 18.18 33.3599 16.62 33.3599 14.68C33.3599 12.17 35.4 10.13 37.91 10.13C40.42 10.13 42.4599 8.09003 42.4599 5.58003C42.4599 3.07003 40.42 1.03003 37.91 1.03003H4.75995" stroke="white" stroke-width="1.06" stroke-linecap="round" stroke-linejoin="round"/>
<path d="M16.9399 33.31H37.9199C40.4299 33.31 42.4699 31.27 42.4699 28.76C42.4699 26.25 40.4299 24.21 37.9199 24.21H20.7799" stroke="white" stroke-width="1.06" stroke-linecap="round" stroke-linejoin="round"/>
<path d="M24.15 41.75C24.4372 41.75 24.67 41.5172 24.67 41.23C24.67 40.9428 24.4372 40.71 24.15 40.71C23.8628 40.71 23.63 40.9428 23.63 41.23C23.63 41.5172 23.8628 41.75 24.15 41.75Z" stroke="white" stroke-width="1.06" stroke-linecap="round" stroke-linejoin="round"/>
<path d="M38.88 17.61C38.88 17.9 38.65 18.13 38.36 18.13C38.07 18.13 37.84 17.9 37.84 17.61C37.84 17.32 38.07 17.09 38.36 17.09C38.65 17.09 38.88 17.32 38.88 17.61Z" stroke="white" stroke-width="1.06" stroke-linecap="round" stroke-linejoin="round"/>
<path d="M34.19 37.97C34.19 38.26 33.96 38.49 33.67 38.49C33.38 38.49 33.15 38.26 33.15 37.97C33.15 37.68 33.38 37.45 33.67 37.45C33.96 37.45 34.19 37.68 34.19 37.97Z" stroke="white" stroke-width="1.06" stroke-linecap="round" stroke-linejoin="round"/>
</svg>
