<svg width="41" height="41" viewBox="0 0 41 41" fill="none" xmlns="http://www.w3.org/2000/svg">
<path d="M11.66 1.07001L6.56 8.44001L32.93 34.81L40.3 29.71L11.66 1.07001Z" stroke="white" stroke-width="1.06" stroke-linecap="round" stroke-linejoin="round"/>
<path d="M19.75 21.62L6.56999 8.44C6.56999 8.44 6.06999 8.94 5.15999 9.85C4.27999 10.73 4.26 11.75 4.86 12.75C6.91 16.19 14.49 23.96 12.12 26.22C8.54999 29.63 4.19999 31.49 2.24999 33.44C0.679994 35.01 0.679994 37.55 2.24999 39.12C3.81999 40.69 6.36 40.69 7.93 39.12C9.88 37.18 11.74 32.83 15.15 29.25C17.41 26.88 25.18 34.46 28.62 36.51C29.62 37.1 30.64 37.09 31.52 36.21L32.93 34.8L19.75 21.62Z" stroke="white" stroke-width="1.06" stroke-linecap="round" stroke-linejoin="round"/>
<path d="M40.3 1.07001L28.46 12.91" stroke="white" stroke-width="1.06" stroke-linecap="round" stroke-linejoin="round"/>
<path d="M26.46 1.07001L21.54 5.99001" stroke="white" stroke-width="1.06" stroke-linecap="round" stroke-linejoin="round"/>
<path d="M40.3 14.91L35.38 19.82" stroke="white" stroke-width="1.06" stroke-linecap="round" stroke-linejoin="round"/>
<path d="M33.38 1.07001L25 9.45001" stroke="white" stroke-width="1.06" stroke-linecap="round" stroke-linejoin="round"/>
<path d="M40.3 7.98999L31.92 16.36" stroke="white" stroke-width="1.06" stroke-linecap="round" stroke-linejoin="round"/>
<path d="M5.44 36.65C5.24 36.85 4.91 36.85 4.71 36.65C4.51 36.45 4.51 36.12 4.71 35.92C4.91 35.72 5.24 35.72 5.44 35.92C5.64 36.12 5.64 36.45 5.44 36.65Z" stroke="white" stroke-width="1.06" stroke-linecap="round" stroke-linejoin="round"/>
</svg>
