<svg width="41" height="41" viewBox="0 0 41 41" fill="none" xmlns="http://www.w3.org/2000/svg">
<path d="M12.94 14.5C10.71 13.74 8.32 13.33 5.84 13.33" stroke="white" stroke-width="1.06" stroke-linecap="round" stroke-linejoin="round"/>
<path d="M28.04 35.53C28.04 33.05 27.63 30.66 26.87 28.43" stroke="white" stroke-width="1.06" stroke-linecap="round" stroke-linejoin="round"/>
<path d="M18.26 10.04C14.51 8.19998 10.29 7.16998 5.84 7.16998" stroke="white" stroke-width="1.06" stroke-linecap="round" stroke-linejoin="round"/>
<path d="M34.2 35.53C34.2 31.08 33.17 26.86 31.33 23.11" stroke="white" stroke-width="1.06" stroke-linecap="round" stroke-linejoin="round"/>
<path d="M25.92 7.52001C20.27 3.46001 13.33 1.07001 5.84 1.07001" stroke="white" stroke-width="1.06" stroke-linecap="round" stroke-linejoin="round"/>
<path d="M40.3 35.53C40.3 28.04 37.91 21.1 33.85 15.45" stroke="white" stroke-width="1.06" stroke-linecap="round" stroke-linejoin="round"/>
<path d="M14.77 18.62C11.69 15.54 12.56 11.91 16.69 10.55L30.21 6.10998C34.35 4.74998 36.62 7.01998 35.26 11.16L30.82 24.68C29.46 28.82 25.83 29.68 22.75 26.6L14.77 18.62Z" stroke="white" stroke-width="1.06" stroke-linecap="round" stroke-linejoin="round"/>
<path d="M21.05 20.32L15.14 26.23" stroke="white" stroke-width="1.06" stroke-linecap="round" stroke-linejoin="round"/>
<path d="M13.38 30.57C14.79 29.2 16.32 29.86 16.32 29.86L17.54 28.64L15.13 26.23L12.72 23.82L11.5 25.04C11.5 25.04 12.15 26.57 10.79 27.98C9.67999 29.13 4.25999 31.96 2.11999 34.11C0.699993 35.53 0.699993 37.82 2.11999 39.24C3.53999 40.66 5.82999 40.66 7.24999 39.24C9.39999 37.1 12.23 31.68 13.38 30.57Z" stroke="white" stroke-width="1.06" stroke-linecap="round" stroke-linejoin="round"/>
</svg>
