<svg width="42" height="42" viewBox="0 0 42 42" fill="none" xmlns="http://www.w3.org/2000/svg">
<path d="M12.67 11.77V6.47H5.59998V18.83" stroke="white" stroke-width="1.06" stroke-linecap="round" stroke-linejoin="round"/>
<path d="M17.72 6.71001V2.45001C17.72 1.40001 16.86 0.540009 15.81 0.540009H2.45999C1.40999 0.540009 0.549988 1.40001 0.549988 2.45001V23.88" stroke="white" stroke-width="1.06" stroke-linecap="round" stroke-linejoin="round"/>
<path d="M26.11 20.26L29.85 16.51L24.85 11.52L16.12 20.26" stroke="white" stroke-width="1.06" stroke-linecap="round" stroke-linejoin="round"/>
<path d="M33.25 20.26L36.26 17.25C37 16.51 37 15.29 36.26 14.55L26.82 5.10999C26.08 4.36999 24.86 4.36999 24.12 5.10999L8.97 20.26" stroke="white" stroke-width="1.06" stroke-linecap="round" stroke-linejoin="round"/>
<path d="M38.91 23.65H9.12999C4.38999 23.65 0.549988 27.49 0.549988 32.23C0.549988 36.97 4.38999 40.81 9.12999 40.81H38.91C39.96 40.81 40.82 39.95 40.82 38.9V25.55C40.82 24.5 39.96 23.64 38.91 23.64V23.65Z" stroke="white" stroke-width="1.06" stroke-linecap="round" stroke-linejoin="round"/>
<path d="M9.13998 35.76C11.0895 35.76 12.67 34.1796 12.67 32.23C12.67 30.2804 11.0895 28.7 9.13998 28.7C7.19042 28.7 5.60999 30.2804 5.60999 32.23C5.60999 34.1796 7.19042 35.76 9.13998 35.76Z" stroke="white" stroke-width="1.06" stroke-linecap="round" stroke-linejoin="round"/>
<path d="M34.9 28.7H19.78V35.76H34.9V28.7Z" stroke="white" stroke-width="1.06" stroke-linecap="round" stroke-linejoin="round"/>
</svg>
