<svg width="41" height="41" viewBox="0 0 41 41" fill="none" xmlns="http://www.w3.org/2000/svg">
<path d="M40.3 1.07001L28.46 12.91M26.46 1.07001L21.54 5.99001M40.3 14.91L35.38 19.82M33.38 1.07001L25 9.45001M40.3 7.99001L31.92 16.36M11.66 1.07001L6.56001 8.44001L32.93 34.81L40.3 29.71L11.66 1.07001ZM6.57001 8.44001C6.57001 8.44001 6.07001 8.94001 5.16001 9.85001C4.28001 10.73 4.26001 11.75 4.86001 12.75C6.91001 16.19 14.49 23.96 12.12 26.22C8.55001 29.63 4.20001 31.49 2.25001 33.44C0.68001 35.01 0.68001 37.55 2.25001 39.12C3.82001 40.69 6.36001 40.69 7.93001 39.12C9.88001 37.18 11.74 32.83 15.15 29.25C17.41 26.88 25.18 34.46 28.62 36.51C29.62 37.1 30.64 37.09 31.52 36.21L32.93 34.8L6.57001 8.44001ZM5.44001 36.65C5.24001 36.85 4.91001 36.85 4.71001 36.65C4.51001 36.45 4.51001 36.12 4.71001 35.92C4.91001 35.72 5.24001 35.72 5.44001 35.92C5.64001 36.12 5.64001 36.45 5.44001 36.65Z" stroke="white" stroke-width="1.06" stroke-linecap="round" stroke-linejoin="round"/>
</svg>
