<svg width="39" height="39" viewBox="0 0 39 39" fill="none" xmlns="http://www.w3.org/2000/svg">
<path d="M1.10001 33.39H38.27M1.10001 28.51H38.27M24.13 23.63H32.81M1.10001 23.63H15.24M1.10001 18.76H12.76M1.10001 13.88H7.73001M7.05 6.04H9.83001M18.29 6.04H21.07M29.53 6.04H32.31M18.29 16.32H21.07M29.53 16.32H32.31M12.67 10.94H15.45M23.91 10.94H26.69M1.10001 1.1H38.27V38.27H1.10001V1.1ZM38.27 26.4C38.26 22.39 38.27 1.09 38.27 1.09H1.10001V8.07C1.10001 10.93 3.57001 12.32 6.27001 13.24C12.33 15.3 14.28 21.98 14.69 22.77C15.63 24.57 17.52 25.79 19.69 25.79C22.11 25.79 24.17 24.27 24.97 22.13C25.53 20.65 26.78 19.39 28.46 19.39C30.14 19.39 31.57 20.66 32.12 22.14C32.12 22.14 33.41 26.71 38.27 26.38V26.4Z" stroke="white" stroke-width="1.06" stroke-linecap="round" stroke-linejoin="round"/>
</svg>
