<svg width="20" height="19" viewBox="0 0 20 19" fill="none" xmlns="http://www.w3.org/2000/svg">
<g clip-path="url(#clip0_105_143)">
<path d="M19.2 3.45C15.45 3.45 11.66 3.45 8.11 3.45H4.35V3.41L3.67001 0.55C3.57001 0.15 3.39001 0 2.97001 0C2.10001 0 1.38 0 0.680005 0C0.590005 0 0.480005 0 0.400005 0.03C0.140005 0.1 -0.0299951 0.37 4.93508e-06 0.65C0.0300049 0.91 0.270005 1.12 0.540005 1.13C0.850005 1.13 1.17 1.13 1.48 1.13H1.9H2.45001H2.6L2.66001 1.33C2.66001 1.33 2.68001 1.42 2.69001 1.46L5.11 11.57C5.20001 11.96 5.37001 12.09 5.78 12.09C9.67 12.09 13.56 12.09 17.44 12.09C17.85 12.09 18.02 11.95 18.12 11.55L18.67 9.31C18.98 8.05 19.29 6.8 19.6 5.54C19.68 5.22 19.77 4.89 19.85 4.59L19.95 4.21V3.88C19.82 3.58 19.58 3.45 19.17 3.45H19.2ZM18.68 4.66L18.01 7.38C17.74 8.47 17.47 9.55 17.2 10.64C17.15 10.86 17.02 10.96 16.8 10.96C14.12 10.96 11.43 10.96 8.75 10.96H6.45C6.45 10.96 6.38 10.96 6.33 10.96L6.14 10.94V10.9L4.63 4.6H18.69V4.66H18.68Z" fill="#00A19A"/>
<path d="M6.74004 13.5701C6.74004 13.5701 6.70004 13.5701 6.68004 13.5701C5.45004 13.5701 4.42004 14.5901 4.38004 15.8501C4.36004 16.4801 4.58004 17.0701 5.01004 17.5201C5.44004 17.9801 6.04004 18.2401 6.69004 18.2601H6.73004C7.34004 18.2601 7.89004 18.0401 8.33004 17.6301C8.79004 17.1901 9.06004 16.5901 9.07004 15.9401C9.10004 14.6701 8.06004 13.6101 6.74004 13.5801V13.5701ZM7.56004 16.7801C7.33004 17.0001 7.03004 17.1301 6.73004 17.1301H6.71004C6.06004 17.1201 5.52004 16.5801 5.51004 15.9201C5.51004 15.6101 5.64004 15.3001 5.86004 15.0701C6.09004 14.8401 6.40004 14.7001 6.72004 14.7001C7.04004 14.7001 7.34004 14.8301 7.57004 15.0601C7.80004 15.2901 7.93004 15.6001 7.93004 15.9201C7.93004 16.2401 7.79004 16.5501 7.56004 16.7801Z" fill="#00A19A"/>
<path d="M15.95 13.5701H15.93C14.64 13.5701 13.58 14.6301 13.59 15.9201C13.59 16.5501 13.84 17.1401 14.29 17.5901C14.73 18.0201 15.32 18.2601 15.95 18.2601C17.26 18.2401 18.28 17.2101 18.28 15.9101C18.28 14.6201 17.23 13.5701 15.95 13.5701ZM16.79 16.7701C16.56 17.0001 16.25 17.1301 15.95 17.1301C15.62 17.1301 15.32 17.0001 15.09 16.7601C14.86 16.5301 14.74 16.2201 14.74 15.9001C14.74 15.5801 14.88 15.2701 15.12 15.0401C15.35 14.8201 15.65 14.7001 15.95 14.7001H15.96C16.62 14.7101 17.17 15.2701 17.17 15.9101C17.17 16.2201 17.04 16.5401 16.8 16.7701H16.79Z" fill="#00A19A"/>
</g>
<defs>
<clipPath id="clip0_105_143">
<rect width="19.99" height="18.26" fill="white"/>
</clipPath>
</defs>
</svg>
