<svg xmlns="http://www.w3.org/2000/svg" width="27.257" height="30.488" viewBox="0 0 27.257 30.488">
  <g id="cart" transform="translate(-4532.2 -51.583)">
    <path id="Контур_48" data-name="Контур 48" d="M4538.76,60.014a7.3,7.3,0,0,1,6.688-8.428,7.013,7.013,0,0,1,5.687,2.42,7.662,7.662,0,0,1,1.715,6.008h.557q2.449,0,4.9,0a1,1,0,0,1,1.139,1.115c.005,5.217.03,10.435-.009,15.652a5.28,5.28,0,0,1-5.4,5.286q-8.171.007-16.342,0a5.291,5.291,0,0,1-5.475-5.4c-.032-5.172-.01-10.344-.006-15.515,0-.779.378-1.139,1.16-1.14C4535.154,60.013,4536.937,60.014,4538.76,60.014Zm-4.635,1.917c-.008.113-.017.187-.017.26,0,4.85-.013,9.7.006,14.549a3.376,3.376,0,0,0,3.476,3.418q8.237.006,16.474,0a3.517,3.517,0,0,0,.681-.048,3.415,3.415,0,0,0,2.8-3.5q.009-7.137,0-14.275c0-.13-.016-.261-.025-.384h-4.649c0,.752,0,1.48,0,2.208a.96.96,0,0,1-.537.935.943.943,0,0,1-1.367-.891c-.021-.743,0-1.486,0-2.237h-10.275v1.914c0,.859-.357,1.341-.977,1.324s-.932-.474-.932-1.317V61.931Zm16.8-1.935c.25-2.421-.291-4.495-2.486-5.786a4.876,4.876,0,0,0-5.556.212c-1.955,1.345-2.392,3.331-2.149,5.574Z" fill="#4E9E79"/>
  </g>
</svg>
