<svg width="22" height="19" viewBox="0 0 22 19" fill="none" xmlns="http://www.w3.org/2000/svg">
<path d="M21.12 4.46011C20.46 1.71011 17.91 -0.149894 14.96 0.130106C13.59 0.260106 12.42 0.830106 11.44 1.80011C11.25 1.99011 11.06 2.17011 10.83 2.39011C10.65 2.19011 10.49 1.99011 10.31 1.82011C8.94003 0.480106 7.31003 -0.0798941 5.41003 0.150106C2.63003 0.490106 0.460034 2.89011 0.420034 5.70011C0.390034 7.37011 0.980034 8.80011 2.16003 9.98011C4.90003 12.7201 7.63004 15.4601 10.37 18.2101C10.74 18.5801 10.99 18.5801 11.36 18.2001C12.09 17.4701 12.82 16.7401 13.55 16.0101C15.55 14.0101 17.56 12.0201 19.54 10.0101C21.08 8.46011 21.63 6.59011 21.12 4.46011Z" fill="#00A19A"/>
</svg>
