<svg width="22" height="19" viewBox="0 0 22 19" fill="none" xmlns="http://www.w3.org/2000/svg">
<path d="M10.72 2.67993C10.95 2.44993 11.14 2.26993 11.33 2.08993C12.31 1.11993 13.49 0.549927 14.85 0.419927C17.8 0.139927 20.36 1.99993 21.01 4.74993C21.52 6.87993 20.97 8.74993 19.43 10.3099C17.44 12.3199 15.44 14.3099 13.44 16.3099C12.71 17.0399 11.98 17.7699 11.25 18.4999C10.88 18.8699 10.62 18.8799 10.26 18.5099C7.52005 15.7699 4.79005 13.0299 2.05005 10.2799C0.870049 9.09993 0.280049 7.66993 0.310049 5.99993C0.360049 3.18993 2.52005 0.789927 5.30005 0.449927C7.20005 0.219927 8.83005 0.779927 10.2 2.11993C10.38 2.27993 10.54 2.47993 10.72 2.67993ZM10.75 17.4599C10.79 17.4199 10.82 17.3999 10.85 17.3699C13.49 14.7399 16.13 12.1099 18.75 9.45993C19.84 8.35993 20.24 6.97993 20 5.44993C19.42 1.87993 15.22 0.289927 12.4 2.56993C11.97 2.91993 11.6 3.32993 11.2 3.71993C10.88 4.02993 10.61 4.02993 10.3 3.71993C10.01 3.42993 9.72005 3.13993 9.42005 2.84993C8.20005 1.64993 6.74005 1.20993 5.08005 1.55993C2.88005 2.01993 1.28005 4.01993 1.37005 6.34993C1.42005 7.57993 1.90005 8.62993 2.78005 9.49993C5.39005 12.0999 7.99005 14.7099 10.59 17.3099C10.64 17.3499 10.69 17.3999 10.75 17.4599Z" fill="#00A19A"/>
</svg>
