<svg xmlns="http://www.w3.org/2000/svg" width="25.387" height="20.926" viewBox="0 0 25.387 20.926">
  <path id="like-orange" d="M3434.257,1043.889c.529-.471,1.044-.967,1.6-1.416a6.747,6.747,0,0,1,10.912,3.474,7.847,7.847,0,0,1-.9,6.1,19.6,19.6,0,0,1-3.736,4.555,41.5,41.5,0,0,1-5.983,4.61,3.052,3.052,0,0,1-3.517.039,38.617,38.617,0,0,1-7.048-5.633,15.233,15.233,0,0,1-3.216-4.537,7.2,7.2,0,0,1,.92-7.74,6.647,6.647,0,0,1,8.889-1.351,9.359,9.359,0,0,1,1.157.915C3433.687,1043.235,3434,1043.617,3434.257,1043.889Zm11.335,4.1c-.053-.431-.085-.865-.163-1.29a5.273,5.273,0,0,0-6.892-4.078,6.283,6.283,0,0,0-3.432,2.925.807.807,0,0,1-1.52,0,6.56,6.56,0,0,0-1.579-1.875,5.326,5.326,0,0,0-7.154.107,5.908,5.908,0,0,0-1.282,6.426,13.06,13.06,0,0,0,2.661,3.974,37.194,37.194,0,0,0,7.053,5.766,1.733,1.733,0,0,0,2.13-.007c1.5-1.089,3.024-2.153,4.467-3.314a19.882,19.882,0,0,0,4.369-4.733A7.421,7.421,0,0,0,3445.592,1047.99Z" transform="translate(-3421.642 -1040.862)" fill="#CA9E67"/>
</svg>
