<svg width="18" height="18" viewBox="0 0 18 18" fill="none" xmlns="http://www.w3.org/2000/svg">
<path d="M15.3998 13.8083L13.3498 11.7583L13.5498 11.4483C15.6598 8.14834 14.9498 3.87834 11.8798 1.50834C9.04983 -0.661657 4.95983 -0.471657 2.35983 1.95834C-0.300171 4.44834 -0.770171 8.45834 1.24983 11.4883C3.17983 14.3883 7.64983 15.9883 11.4998 13.5083L11.8698 13.2783L12.1798 13.7183L15.9498 17.5083C16.2698 17.8283 16.5998 17.9383 16.9998 17.8583C17.4498 17.7683 17.7298 17.5183 17.8498 17.0883C17.9798 16.6583 17.8798 16.2883 17.5598 15.9683C16.8398 15.2483 16.1198 14.5283 15.3998 13.8083ZM7.37983 13.3083C4.10983 13.3083 1.43983 10.6383 1.43983 7.36834C1.43983 4.09834 4.09983 1.42834 7.36983 1.42834H7.38983C8.95983 1.42834 10.4498 2.04834 11.5798 3.17834C12.7098 4.30834 13.3298 5.79834 13.3298 7.37834C13.3298 10.6483 10.6598 13.3083 7.38983 13.3083H7.37983Z" fill="#808080"/>
</svg>
