<?xml version="1.0" encoding="utf-8"?>
<!-- Generator: Adobe Illustrator 24.0.1, SVG Export Plug-In . SVG Version: 6.00 Build 0)  -->
<svg version="1.1" id="Layer_1" xmlns="http://www.w3.org/2000/svg" xmlns:xlink="http://www.w3.org/1999/xlink" x="0px" y="0px"
	 viewBox="0 0 45 45" style="enable-background:new 0 0 45 45;" xml:space="preserve">
<style type="text/css">
	.st0{fill:none;stroke:#CA9E67;stroke-width:1.9002;stroke-linecap:round;stroke-linejoin:round;stroke-miterlimit:10;}
</style>
<g>
	<line class="st0" x1="8.65" y1="14.89" x2="8.65" y2="11.09"/>
	<polyline class="st0" points="19.1,19.64 19.1,11.09 16.73,11.09 14.83,13.47 13.88,11.09 3.9,11.09 3.9,19.64 	"/>
	<path class="st0" d="M20.05,19.64v5.45c0,1.91-1.65,2.11-3.33,2.88c-2.06,0.95-2.88,2.45-3.08,3.87c-0.21,1.42,0.4,3.65,0.4,5.31
		c0,2.89-2.53,4.33-2.53,4.33s-2.53-1.44-2.53-4.33c0-1.66,0.6-3.9,0.4-5.31c-0.21-1.42-1.03-2.92-3.08-3.87
		c-1.68-0.78-3.33-0.97-3.33-2.88v-5.45H20.05z"/>
	<line class="st0" x1="6.22" y1="24.39" x2="16.79" y2="24.39"/>
	<path class="st0" d="M11.5,7.71V5.39c0-1.05,0.85-1.9,1.9-1.9h23.75c1.05,0,1.9,0.85,1.9,1.9v7.6c0,1.05-0.85,1.9-1.9,1.9H22.49"/>
	<path class="st0" d="M39.06,9.19h2.85c0.53-0.01,0.95,0.42,0.95,0.95v6.92c0,0.39-0.24,0.74-0.6,0.88L27.3,23.16
		c-0.36,0.14-0.6,0.49-0.6,0.88v3.2"/>
	
		<rect x="19.58" y="31.52" transform="matrix(-1.836970e-16 1 -1 -1.836970e-16 61.0758 7.6658)" class="st0" width="14.25" height="5.7"/>
</g>
</svg>
