<?xml version="1.0" encoding="utf-8"?>
<!-- Generator: Adobe Illustrator 24.0.1, SVG Export Plug-In . SVG Version: 6.00 Build 0)  -->
<svg version="1.1" id="Layer_1" xmlns="http://www.w3.org/2000/svg" xmlns:xlink="http://www.w3.org/1999/xlink" x="0px" y="0px"
	 viewBox="0 0 45 45" style="enable-background:new 0 0 45 45;" xml:space="preserve">
<style type="text/css">
	.st0{fill:none;stroke:#CA9E67;stroke-width:1.9002;stroke-linecap:round;stroke-linejoin:round;stroke-miterlimit:10;}
</style>
<g>
	<path class="st0" d="M17.98,9.5l7.69-7.69c0.74-0.74,1.95-0.74,2.69,0c0.74,0.74,0.74,1.95,0,2.69l-1.74,1.74
		c-0.74,0.74-0.74,1.95,0,2.69c0.74,0.74,1.95,0.74,2.69,0l0.67-0.67c0.74-0.74,1.95-0.74,2.69,0c0.74,0.74,0.74,1.95,0,2.69
		l-0.67,0.67c-0.74,0.74-0.74,1.95,0,2.69c0.74,0.74,1.95,0.74,2.69,0l2.69-2.69c0.74-0.74,1.95-0.74,2.69,0
		c0.74,0.74,0.74,1.95,0,2.69l-3.36,3.36c-0.74,0.74-0.74,1.95,0,2.69c0.74,0.74,1.95,0.74,2.69,0l0.67-0.67
		c0.74-0.74,1.95-0.74,2.69,0c0.74,0.74,0.74,1.95,0,2.69l-6.11,6.11"/>
	<path class="st0" d="M29.44,35.62l4.7-4.7c0.37-0.37,0.37-0.97,0-1.34L16.68,12.11c-0.37-0.37-0.97-0.37-1.34,0l-4.7,4.7
		c-0.37,0.37-0.37,0.97,0,1.34L28.1,35.62C28.47,35.99,29.07,35.99,29.44,35.62z"/>
	<path class="st0" d="M12.65,14.79l-2.17-2.17c-0.28-0.29-0.73-0.3-1.01-0.03l-4.63,4.63c-0.23,0.23-0.27,0.57-0.1,0.85l9.02,13.68
		c0.16,0.27,0.12,0.62-0.1,0.85l-1.68,1.68"/>
	<path class="st0" d="M6.37,43.46l6.72-6.72c0.37-0.37,0.37-0.97,0-1.34l-2.24-2.24c-0.37-0.37-0.97-0.37-1.34,0l-6.72,6.72
		c-0.37,0.37-0.37,0.97,0,1.34l2.24,2.24C5.4,43.83,6,43.83,6.37,43.46z"/>
</g>
</svg>
