<?xml version="1.0" encoding="utf-8"?>
<!-- Generator: Adobe Illustrator 24.0.1, SVG Export Plug-In . SVG Version: 6.00 Build 0)  -->
<svg version="1.1" id="Layer_1" xmlns="http://www.w3.org/2000/svg" xmlns:xlink="http://www.w3.org/1999/xlink" x="0px" y="0px"
	 viewBox="0 0 45 45" style="enable-background:new 0 0 45 45;" xml:space="preserve">
<style type="text/css">
	.st0{fill:none;stroke:#CA9E67;stroke-width:1.9002;stroke-linecap:round;stroke-linejoin:round;stroke-miterlimit:10;}
</style>
<g>
	<line class="st0" x1="19.47" y1="22.49" x2="23" y2="22.49"/>
	<path class="st0" d="M8.4,10.33c0-1.66,5.4-3.01,12.05-3.01c6.66,0,12.05,1.35,12.05,3.01"/>
	<line class="st0" x1="36.61" y1="27.6" x2="36.61" y2="10.52"/>
	<path class="st0" d="M19.98,3.49c-9.18,0-16.63,3.19-16.63,7.13c0,1.94,1.82,3.7,4.75,4.98v4.99c0,1.05,0.85,1.9,1.9,1.9
		c1.05,0,1.9-0.85,1.9-1.9v4.75c0,1.05,0.85,1.9,1.9,1.9c1.05,0,1.9-0.85,1.9-1.9V17.5c1.37,0.16,2.79,0.25,4.28,0.25
		c9.18,0,16.63-3.19,16.63-7.13S29.16,3.49,19.98,3.49z"/>
	<path class="st0" d="M36.61,30.32v4.05c0,3.94-7.44,7.13-16.63,7.13S3.35,38.31,3.35,34.37V10.62"/>
	<path class="st0" d="M20.45,22.49c3.86,4.55,9.7,7.2,14.17,7.76c4.93,0.62,8.79-2.14,4.87-7.12"/>
</g>
</svg>
