<?xml version="1.0" encoding="utf-8"?>
<!-- Generator: Adobe Illustrator 24.0.1, SVG Export Plug-In . SVG Version: 6.00 Build 0)  -->
<svg version="1.1" id="Layer_1" xmlns="http://www.w3.org/2000/svg" xmlns:xlink="http://www.w3.org/1999/xlink" x="0px" y="0px"
	 viewBox="0 0 45 45" style="enable-background:new 0 0 45 45;" xml:space="preserve">
<style type="text/css">
	.st0{fill:none;stroke:#CA9E67;stroke-width:1.9002;stroke-linecap:round;stroke-linejoin:round;stroke-miterlimit:10;}
</style>
<g>
	<path class="st0" d="M42.52,16.97L27.71,2.18c0,0-1.75,3.7,0.56,6c1.43,1.43,1.69,1.64,2.15,2.09c1.76,1.76-0.05,3.59,1.58,5.22
		c1.76,1.76,4.35,0.97,5.96,2.59c1.19,1.19,1.42,2.28,1.35,3.84c-0.09,2.05-0.99,3.83-0.99,5.49c0,1.66,1.34,2.84,2.85,2.84
		c1.5,0,2.75-1.19,2.75-2.91C43.91,25.36,42.25,23.32,42.52,16.97"/>
	<line class="st0" x1="23.74" y1="4.05" x2="17.36" y2="10.43"/>
	<line class="st0" x1="33.34" y1="26.41" x2="35.72" y2="24.03"/>
	<line class="st0" x1="5.52" y1="38.25" x2="6.52" y2="37.25"/>
	<path class="st0" d="M34.01,27.07l-5.52,5.52c-1.97,1.97-3.78,0.55-6.3-0.29c-2.8-0.93-5.2-0.61-7.29,1.05
		c-2.6,2.05-3.06,4.56-5.39,6.89c-3.27,3.27-8.32,2.33-8.32,2.33s-0.94-5.05,2.33-8.32c2.33-2.33,4.84-2.79,6.89-5.39
		c1.66-2.1,1.98-4.49,1.05-7.29c-0.84-2.52-2.25-4.33-0.29-6.3l5.52-5.52L34.01,27.07z"/>
	<line class="st0" x1="13.84" y1="17.94" x2="25.83" y2="29.93"/>
</g>
</svg>
