<?xml version="1.0" encoding="utf-8"?>
<!-- Generator: Adobe Illustrator 24.0.1, SVG Export Plug-In . SVG Version: 6.00 Build 0)  -->
<svg version="1.1" id="Layer_1" xmlns="http://www.w3.org/2000/svg" xmlns:xlink="http://www.w3.org/1999/xlink" x="0px" y="0px"
	 viewBox="0 0 45 45" style="enable-background:new 0 0 45 45;" xml:space="preserve">
<style type="text/css">
	.st0{fill:none;stroke:#CA9E67;stroke-width:1.9002;stroke-linecap:round;stroke-linejoin:round;stroke-miterlimit:10;}
</style>
<g>
	<line class="st0" x1="983.17" y1="1013.24" x2="980.34" y2="1013.24"/>
	<path class="st0" d="M982.07,1013.27c-2.99,5.4-8.96,9.25-13.26,10.94c-5.79,2.27-10.8,2.03-10.8-2.43c0-1.61,0.91-3.51,2.02-4.72"
		/>
	<path class="st0" d="M963.04,1025.6v5.71c0,1.05,0.85,1.9,1.9,1.9h22.8c1.05,0,1.9-0.85,1.9-1.9v-9.34"/>
	<line class="st0" x1="963.04" y1="1008.49" x2="963.04" y2="1022.6"/>
	<path class="st0" d="M983.24,1008.49h-8.8c-1.51,0-2.85,0.95-2.85,2.85l0,3.8c0,1.05-0.85,1.92-1.9,1.92c-1.05,0-1.9-0.85-1.9-1.9
		v-6.67h-6.65"/>
	<path class="st0" d="M967.27,1005.39l15.19-12.75c0.59-0.5,1.47-0.42,1.97,0.17l3.7,4.41c0.5,0.59,0.42,1.47-0.17,1.97l-7.49,6.28"
		/>
	<path class="st0" d="M986.39,995.15l1.61-1.41c0.3-0.25,0.74-0.22,0.99,0.08l3.25,3.87c0.19,0.23,0.21,0.55,0.06,0.8l-5.92,9.97
		c-0.15,0.25-0.13,0.58,0.06,0.8l1.78,2.12"/>
	
		<rect x="986.18" y="1013.37" transform="matrix(0.6428 0.766 -0.766 0.6428 1132.4126 -396.9918)" class="st0" width="11.4" height="4.75"/>
</g>
<g>
	<line class="st0" x1="28.38" y1="22.97" x2="25.55" y2="22.97"/>
	<path class="st0" d="M27.29,23c-2.99,5.4-8.96,9.25-13.26,10.94c-5.79,2.27-10.8,2.03-10.8-2.43c0-1.61,0.91-3.51,2.02-4.72"/>
	<path class="st0" d="M8.25,35.33v5.71c0,1.05,0.85,1.9,1.9,1.9h22.8c1.05,0,1.9-0.85,1.9-1.9V31.7"/>
	<line class="st0" x1="8.25" y1="18.22" x2="8.25" y2="32.33"/>
	<path class="st0" d="M28.45,18.22h-8.8c-1.51,0-2.85,0.95-2.85,2.85l0,3.8c0,1.05-0.85,1.92-1.9,1.92c-1.05,0-1.9-0.85-1.9-1.9
		v-6.67H6.35"/>
	<path class="st0" d="M12.48,15.12L27.68,2.38c0.59-0.5,1.47-0.42,1.97,0.17l3.7,4.41c0.5,0.59,0.42,1.47-0.17,1.97l-7.49,6.28"/>
	<path class="st0" d="M31.6,4.88l1.61-1.41c0.3-0.25,0.74-0.22,0.99,0.08l3.25,3.87c0.19,0.23,0.21,0.55,0.06,0.8l-5.92,9.97
		c-0.15,0.25-0.13,0.58,0.06,0.8l1.78,2.12"/>
	
		<rect x="31.4" y="23.1" transform="matrix(0.6428 0.766 -0.766 0.6428 32.7686 -19.3184)" class="st0" width="11.4" height="4.75"/>
</g>
</svg>
