<?xml version="1.0" encoding="utf-8"?>
<!-- Generator: Adobe Illustrator 24.0.1, SVG Export Plug-In . SVG Version: 6.00 Build 0)  -->
<svg version="1.1" id="Layer_1" xmlns="http://www.w3.org/2000/svg" xmlns:xlink="http://www.w3.org/1999/xlink" x="0px" y="0px"
	 viewBox="0 0 45 45" style="enable-background:new 0 0 45 45;" xml:space="preserve">
<style type="text/css">
	.st0{fill:none;stroke:#CA9E67;stroke-width:1.9002;stroke-linecap:round;stroke-linejoin:round;stroke-miterlimit:10;}
</style>
<g>
	<line class="st0" x1="983.17" y1="1013.24" x2="980.34" y2="1013.24"/>
	<path class="st0" d="M982.07,1013.27c-2.99,5.4-8.96,9.25-13.26,10.94c-5.79,2.27-10.8,2.03-10.8-2.43c0-1.61,0.91-3.51,2.02-4.72"
		/>
	<path class="st0" d="M963.04,1025.6v5.71c0,1.05,0.85,1.9,1.9,1.9h22.8c1.05,0,1.9-0.85,1.9-1.9v-9.34"/>
	<line class="st0" x1="963.04" y1="1008.49" x2="963.04" y2="1022.6"/>
	<path class="st0" d="M983.24,1008.49h-8.8c-1.51,0-2.85,0.95-2.85,2.85l0,3.8c0,1.05-0.85,1.92-1.9,1.92c-1.05,0-1.9-0.85-1.9-1.9
		v-6.67h-6.65"/>
	<path class="st0" d="M967.27,1005.39l15.19-12.75c0.59-0.5,1.47-0.42,1.97,0.17l3.7,4.41c0.5,0.59,0.42,1.47-0.17,1.97l-7.49,6.28"
		/>
	<path class="st0" d="M986.39,995.15l1.61-1.41c0.3-0.25,0.74-0.22,0.99,0.08l3.25,3.87c0.19,0.23,0.21,0.55,0.06,0.8l-5.92,9.97
		c-0.15,0.25-0.13,0.58,0.06,0.8l1.78,2.12"/>
	
		<rect x="986.18" y="1013.37" transform="matrix(0.6428 0.766 -0.766 0.6428 1132.4126 -396.9918)" class="st0" width="11.4" height="4.75"/>
</g>
<g>
	<path class="st0" d="M37.41,29.5l5.37-5.37c0.74-0.74,0.74-1.95,0-2.69L23.97,2.62c-0.74-0.74-1.95-0.74-2.69,0L15.91,8
		c-0.74,0.74-0.74,1.95,0,2.69L34.72,29.5C35.47,30.24,36.67,30.24,37.41,29.5z"/>
	<path class="st0" d="M18.53,5.3l-1.95-2c-0.37-0.38-0.98-0.38-1.35-0.01L9.69,8.83c-0.3,0.3-0.36,0.75-0.16,1.12l8.74,16.22
		c0.2,0.37,0.13,0.83-0.16,1.12l-2.86,2.86"/>
	
		<rect x="2.26" y="32.68" transform="matrix(-0.7071 0.7071 -0.7071 -0.7071 41.9542 53.689)" class="st0" width="15.2" height="5.7"/>
</g>
</svg>
